# xmcd CD database file
#
# Track frame offsets:
#	150
#	21966
#	42945
#	62007
#	83661
#	105747
#	127104
#	151917
#	176379
#	198222
#	217014
#
# Disc length: 3113 seconds
#
# Revision: 0
# Processed by: cddbd v1.5.1PL0 Copyright (c) Steve Scherf et al.
# Submitted via: CDex 1.50Beta7
#
DISCID=8f0c270b
DTITLE=Darren Rahn - Special Edition
DYEAR=2002
DGENRE=Jazz
TTITLE0=Soulfull
TTITLE1=Come Back To Me
TTITLE2=Takin' It Easy
TTITLE3=Daddy's Girl
TTITLE4=Heartbreak
TTITLE5=The Best Is Yet To Come
TTITLE6=Double Take
TTITLE7=Lookin' Ahead
TTITLE8=The Source
TTITLE9=When The Time Is Right
TTITLE10=Mr Coltrane
EXTD=YEAR: 2002
EXTT0=
EXTT1=
EXTT2=
EXTT3=
EXTT4=
EXTT5=
EXTT6=
EXTT7=
EXTT8=
EXTT9=
EXTT10=
PLAYORDER=
